<svg width="856" height="186" viewBox="0 0 856 186" fill="none" xmlns="http://www.w3.org/2000/svg">
<path d="M465.764 139.15L493.305 72.5005H508.07L461.184 186H446.336L459.211 154.836L419.56 72.5005H434.574L465.764 139.15Z" fill="white"/>
<path fill-rule="evenodd" clip-rule="evenodd" d="M378.408 70.8403C386.703 70.8403 394.003 72.8329 400.308 76.8169C406.667 80.8009 411.617 86.3339 415.156 93.4165C418.696 100.499 420.465 108.689 420.465 117.985V120.64H351.034C352.03 125.509 354.021 129.743 357.007 133.339C359.993 136.936 363.726 139.73 368.205 141.722C372.74 143.714 377.773 144.71 383.303 144.71C392.815 144.71 401.497 141.584 409.35 135.332L415.654 145.292C405.368 153.204 394.031 157.161 381.644 157.161C373.017 157.161 365.274 155.223 358.417 151.35C351.56 147.477 346.14 142.22 342.158 135.581C338.232 128.885 336.269 121.332 336.269 112.921C336.269 104.843 338.093 97.6493 341.743 91.3413C345.393 84.978 350.398 79.9708 356.758 76.3188C363.118 72.6669 370.334 70.8403 378.408 70.8403ZM379.155 83.2905C374.012 83.2905 369.366 84.3698 365.219 86.5278C361.126 88.6858 357.781 91.7014 355.182 95.5747C352.638 99.3926 351.089 103.874 350.536 109.02H407.607C406.999 103.874 405.395 99.3926 402.796 95.5747C400.252 91.7014 396.934 88.6858 392.842 86.5278C388.805 84.3699 384.243 83.2906 379.155 83.2905Z" fill="white"/>
<path d="M649.352 118.815C649.352 126.672 651.563 132.953 655.987 137.656C660.467 142.359 666.412 144.71 673.822 144.71C681.565 144.71 687.814 142.165 692.57 137.075C697.381 131.984 699.787 125.344 699.787 117.155V72.5005H713.391V155.5H701.446L700.948 142.054C697.907 146.924 693.897 150.659 688.92 153.259C683.998 155.86 678.164 157.161 671.417 157.161C660.412 157.161 651.702 153.841 645.287 147.201C638.927 140.505 635.747 131.375 635.747 119.81V72.5005H649.352V118.815Z" fill="white"/>
<path fill-rule="evenodd" clip-rule="evenodd" d="M820.911 70.8403C828.1 70.8403 834.294 72.3071 839.492 75.2397C844.746 78.1171 848.811 82.2396 851.687 87.6069C854.562 92.9189 856 99.2269 856 106.531V155.5H844.304L843.392 144.544C840.35 148.473 836.478 151.572 831.777 153.84C827.077 156.054 821.823 157.161 816.017 157.161C810.044 157.161 804.707 155.998 800.007 153.674C795.306 151.295 791.601 148.058 788.892 143.963C786.237 139.869 784.909 135.22 784.909 130.019C784.909 124.541 786.347 119.727 789.223 115.578C792.154 111.372 796.108 108.08 801.085 105.701C806.117 103.321 811.814 102.131 818.174 102.131C822.321 102.131 826.552 102.657 830.865 103.708C835.179 104.704 839.022 106.088 842.396 107.859V104.373C842.396 99.946 841.29 96.1831 839.078 93.0845C836.866 89.9306 833.907 87.5238 830.202 85.8638C826.497 84.1484 822.404 83.2905 817.925 83.2905C814.054 83.2905 810.1 84.0101 806.062 85.4487C802.026 86.832 798.154 88.9898 794.449 91.9224L789.97 80.2192C794.781 77.1206 799.841 74.7969 805.15 73.2476C810.459 71.643 815.713 70.8403 820.911 70.8403ZM820.579 113.585C814.441 113.585 809.298 115.08 805.15 118.068C801.058 121.056 799.012 124.846 799.012 129.439C799.012 132.316 799.841 134.917 801.5 137.241C803.214 139.565 805.537 141.39 808.468 142.718C811.399 144.046 814.718 144.71 818.423 144.71C822.681 144.71 826.58 143.825 830.119 142.054C833.658 140.284 836.534 137.738 838.746 134.418C840.958 131.043 842.174 127.059 842.396 122.466V121.055C839.354 118.676 835.925 116.85 832.109 115.578C828.349 114.25 824.505 113.585 820.579 113.585Z" fill="white"/>
<path d="M261.604 84.9507C267.854 75.544 277.531 70.8403 290.638 70.8403C301.643 70.8403 310.214 74.1329 316.353 80.7173C322.546 87.2466 325.644 96.3772 325.644 108.108V155.5H312.039V111.261C312.039 102.353 309.827 95.4359 305.403 90.5112C301.034 85.5313 294.923 83.0415 287.07 83.0415C279.162 83.0416 272.941 85.559 268.406 90.5942C263.872 95.6295 261.605 102.519 261.604 111.261V155.5H248V31.0005H261.604V84.9507Z" fill="white"/>
<path fill-rule="evenodd" clip-rule="evenodd" d="M627.611 155.5H612.265L598.744 121.885H538.521L524.999 155.5H509.652L560.752 31.0005H576.596L627.611 155.5ZM543.663 108.937H593.601L568.632 46.77L543.663 108.937Z" fill="white"/>
<path d="M775.031 70.8403C776.524 70.8403 778.045 70.9234 779.594 71.0894C781.142 71.2554 782.691 71.5044 784.239 71.8364L782.58 84.1206C779.539 83.4013 776.524 83.0415 773.538 83.0415C768.119 83.0416 763.307 84.3699 759.104 87.0259C754.957 89.6819 751.722 93.334 749.399 97.9819C747.077 102.63 745.915 107.969 745.915 114V155.5H732.311V72.5005H744.256L744.837 88.9341C747.713 83.2349 751.75 78.8087 756.948 75.6548C762.202 72.4456 768.229 70.8404 775.031 70.8403Z" fill="white"/>
<path d="M137.639 87.0099C137.239 87.4778 136.837 87.9468 136.433 88.4167C136.249 88.6292 136.066 88.8427 135.882 89.0562C135.305 89.7234 134.725 90.3915 134.14 91.0606C134.128 91.073 134.119 91.0844 134.108 91.0959C134.038 91.1769 133.965 91.2579 133.895 91.3389C133.239 92.0852 132.579 92.8334 131.913 93.5825C131.652 93.8761 131.388 94.1697 131.126 94.4632C130.63 95.0179 130.133 95.5717 129.632 96.1274C129.339 96.4514 129.045 96.7755 128.751 97.0995C128.236 97.6657 127.719 98.2318 127.197 98.7989C126.946 99.0744 126.694 99.3489 126.44 99.6243C125.667 100.462 124.89 101.302 124.102 102.141C124.1 102.144 124.097 102.147 124.095 102.15C124.089 102.157 124.083 102.162 124.078 102.168C124.054 102.194 124.029 102.22 124.004 102.245C123.239 103.063 122.466 103.881 121.687 104.7C121.677 104.71 121.667 104.721 121.658 104.731C121.395 105.008 121.129 105.284 120.865 105.56C120.32 106.13 119.773 106.7 119.224 107.269C118.925 107.58 118.625 107.89 118.324 108.2C117.766 108.775 117.205 109.35 116.64 109.925C116.364 110.207 116.089 110.49 115.81 110.772C115.012 111.582 114.208 112.392 113.398 113.202C113.366 113.236 113.334 113.268 113.301 113.301C113.239 113.364 113.176 113.425 113.114 113.487C112.333 114.266 111.553 115.041 110.772 115.81C110.496 116.082 110.219 116.352 109.943 116.622C109.359 117.196 108.773 117.768 108.188 118.335C107.877 118.636 107.568 118.937 107.257 119.237C106.687 119.787 106.118 120.332 105.549 120.876C105.262 121.15 104.975 121.425 104.688 121.698C103 123.303 101.313 124.882 99.6291 126.436C99.3498 126.694 99.0706 126.948 98.7913 127.206C98.2108 127.737 97.6323 128.266 97.0537 128.792C97.0414 128.803 97.029 128.814 97.0166 128.826C96.723 129.092 96.4285 129.359 96.1349 129.624C95.5697 130.134 95.0064 130.64 94.4431 131.144C94.161 131.396 93.8779 131.649 93.5968 131.901C92.7714 132.634 91.9469 133.363 91.1244 134.083C91.1139 134.091 91.1043 134.1 91.0948 134.11C90.4124 134.707 89.7318 135.298 89.0523 135.885C88.8321 136.075 88.6129 136.263 88.3937 136.452C87.9304 136.85 87.4672 137.248 87.005 137.642C86.7524 137.858 86.4998 138.072 86.2482 138.286C85.8164 138.653 85.3856 139.017 84.9548 139.379C84.6965 139.596 84.4382 139.813 84.1808 140.03C83.7386 140.4 83.2973 140.768 82.856 141.134C82.6225 141.327 82.388 141.522 82.1545 141.715C81.6188 142.158 81.0842 142.597 80.5504 143.033C80.4151 143.144 80.2807 143.255 80.1463 143.364C79.4781 143.909 78.811 144.448 78.1466 144.982C77.9712 145.123 77.7978 145.26 77.6234 145.401C77.1315 145.794 76.6397 146.187 76.1498 146.575C75.9173 146.759 75.6857 146.942 75.4531 147.125C75.0204 147.466 74.5886 147.805 74.1569 148.142C73.91 148.335 73.6631 148.527 73.4172 148.718C72.9921 149.048 72.5689 149.375 72.1467 149.7C71.9094 149.882 71.673 150.065 71.4366 150.246C70.9696 150.603 70.5054 150.955 70.0413 151.306C69.8554 151.446 69.6695 151.589 69.4846 151.728C68.8375 152.216 68.1912 152.7 67.5479 153.177C67.4602 153.242 67.3735 153.306 67.2858 153.371C66.7311 153.78 66.1792 154.186 65.6292 154.588C65.4157 154.743 65.2032 154.897 64.9907 155.052C64.5656 155.361 64.1395 155.669 63.7154 155.973C63.4771 156.144 63.2407 156.313 63.0034 156.482C62.6002 156.769 62.1989 157.054 61.7986 157.337C61.5632 157.503 61.3278 157.669 61.0933 157.834C60.674 158.128 60.2565 158.417 59.84 158.707C59.6322 158.851 59.4244 158.996 59.2166 159.139C58.6838 159.507 58.152 159.868 57.623 160.227C57.5382 160.285 57.4524 160.345 57.3676 160.402C56.7547 160.816 56.1466 161.223 55.5395 161.626C55.3584 161.746 55.1792 161.863 54.999 161.982C54.573 162.263 54.1479 162.543 53.7238 162.818C53.5036 162.962 53.2834 163.104 53.0632 163.245C52.6791 163.494 52.296 163.74 51.9157 163.983C51.6879 164.127 51.4601 164.272 51.2333 164.415C50.853 164.655 50.4746 164.893 50.0971 165.128C49.8827 165.263 49.6682 165.396 49.4547 165.529C49.0258 165.793 48.6007 166.054 48.1756 166.312C48.0212 166.406 47.8649 166.503 47.7105 166.595C47.1329 166.945 46.5601 167.288 45.9901 167.623C45.871 167.694 45.7537 167.762 45.6356 167.831C45.1857 168.095 44.7368 168.357 44.2916 168.613C44.0953 168.726 43.9009 168.836 43.7055 168.947C43.3376 169.157 42.9706 169.365 42.6065 169.57C42.3959 169.688 42.1852 169.804 41.9756 169.92C41.6239 170.116 41.275 170.307 40.9271 170.497C40.7212 170.609 40.5154 170.721 40.3114 170.831C39.9425 171.03 39.5765 171.223 39.2115 171.417C39.0361 171.509 38.8598 171.604 38.6863 171.694C38.1545 171.973 37.6265 172.244 37.1032 172.509C37.0956 172.513 37.0879 172.517 37.0813 172.52C36.5609 172.783 36.0462 173.038 35.5343 173.288C35.3647 173.371 35.1969 173.45 35.0282 173.532C34.6803 173.7 34.3344 173.865 33.9912 174.026C33.7987 174.118 33.6071 174.206 33.4155 174.295C33.0953 174.443 32.777 174.589 32.4596 174.732C32.2689 174.819 32.0774 174.904 31.8867 174.989C31.5636 175.132 31.2443 175.271 30.926 175.409C30.7516 175.484 30.5771 175.559 30.4056 175.632C30.0281 175.792 29.6564 175.947 29.2847 176.098C29.177 176.142 29.0664 176.188 28.9587 176.232C28.485 176.424 28.0161 176.607 27.5519 176.784C27.4242 176.832 27.2984 176.878 27.1716 176.926C26.8352 177.052 26.5006 177.177 26.1699 177.295C26.0012 177.356 25.8334 177.413 25.6667 177.472C25.3788 177.573 25.0929 177.671 24.8098 177.766C24.6354 177.824 24.4619 177.881 24.2903 177.937C24.012 178.028 23.7356 178.114 23.4621 178.199C23.2981 178.25 23.1332 178.301 22.9703 178.35C22.6738 178.438 22.3831 178.521 22.0924 178.603C21.958 178.641 21.8236 178.681 21.6912 178.716C21.2756 178.829 20.8639 178.936 20.4588 179.034C20.3902 179.05 20.3244 179.065 20.2558 179.081C19.9184 179.161 19.5838 179.237 19.254 179.307C19.1149 179.336 18.9776 179.362 18.8394 179.39C18.584 179.441 18.3295 179.491 18.0788 179.536C17.9292 179.562 17.7815 179.587 17.6328 179.612C17.3964 179.651 17.161 179.687 16.9284 179.72C16.7835 179.741 16.6377 179.761 16.4938 179.78C16.2555 179.811 16.021 179.837 15.7875 179.861C15.6588 179.875 15.5292 179.889 15.4025 179.901C15.1108 179.926 14.8239 179.946 14.5408 179.962C14.4789 179.965 14.415 179.971 14.3531 179.974C14.0128 179.99 13.6811 179.998 13.3532 179.999C13.2484 179.999 13.1474 179.994 13.0435 179.993C12.8204 179.99 12.5993 179.984 12.382 179.975C12.26 179.968 12.1399 179.96 12.0198 179.951C11.8254 179.938 11.6319 179.922 11.4422 179.902C11.3221 179.89 11.202 179.877 11.0838 179.861C10.8951 179.838 10.7112 179.809 10.5291 179.779C10.4186 179.76 10.308 179.744 10.2003 179.723C9.99824 179.685 9.79998 179.64 9.60364 179.594C9.52358 179.575 9.44162 179.558 9.36346 179.538C9.09372 179.468 8.83162 179.391 8.57617 179.304C8.51327 179.284 8.45322 179.258 8.39127 179.235C8.19874 179.167 8.01002 179.095 7.82606 179.017C7.73551 178.979 7.64974 178.937 7.56205 178.897C7.41051 178.827 7.25991 178.755 7.11408 178.679C7.02354 178.631 6.93489 178.581 6.84721 178.531C6.70806 178.452 6.57272 178.37 6.43928 178.285C6.35635 178.231 6.27248 178.178 6.19146 178.122C6.05325 178.027 5.91981 177.925 5.78828 177.822C5.72061 177.769 5.65104 177.719 5.58623 177.665C5.40036 177.51 5.22213 177.349 5.05058 177.179C5.0439 177.173 5.03532 177.166 5.02865 177.159C-5.31942 166.811 13.418 130.684 48.0794 91.094C54.4977 98.4253 61.4612 105.874 68.888 113.301C76.3147 120.727 83.7643 127.692 91.0948 134.11V48.5945C91.1758 48.3467 91.2368 48.1227 91.2759 47.9207C130.794 13.3626 166.828 -5.30323 177.16 5.02949C177.338 5.20773 177.506 5.39549 177.667 5.58897C177.719 5.65092 177.766 5.71669 177.817 5.77959C177.923 5.91589 178.027 6.05314 178.126 6.19515C178.179 6.27331 178.23 6.35338 178.282 6.43344C178.37 6.57069 178.454 6.70984 178.536 6.85376C178.583 6.93763 178.632 7.02341 178.676 7.11014C178.757 7.26074 178.831 7.41513 178.902 7.5724C178.94 7.65532 178.98 7.7373 179.017 7.82212C179.099 8.01465 179.174 8.21291 179.245 8.41402C179.264 8.46739 179.285 8.51886 179.304 8.57318C179.391 8.83147 179.469 9.09642 179.54 9.36902C179.558 9.43764 179.572 9.51009 179.589 9.58062C179.638 9.78649 179.685 9.99427 179.726 10.2078C179.745 10.3088 179.761 10.4127 179.778 10.5166C179.81 10.7063 179.838 10.8988 179.863 11.0942C179.877 11.2057 179.891 11.3191 179.902 11.4335C179.923 11.6308 179.939 11.8319 179.954 12.0349C179.961 12.1483 179.97 12.2608 179.975 12.3752C179.986 12.603 179.992 12.8355 179.994 13.069C179.996 13.1624 179.999 13.2539 179.998 13.3483C179.998 13.68 179.991 14.0174 179.975 14.3624C179.974 14.3986 179.97 14.4358 179.968 14.472C179.952 14.7808 179.93 15.0944 179.9 15.4127C179.891 15.5281 179.876 15.6462 179.864 15.7635C179.839 16.0084 179.812 16.2563 179.779 16.5079C179.762 16.6423 179.743 16.7766 179.723 16.9129C179.689 17.1569 179.651 17.4028 179.61 17.6516C179.587 17.7898 179.563 17.929 179.538 18.0691C179.491 18.3312 179.44 18.5971 179.386 18.864C179.36 18.9917 179.337 19.1194 179.308 19.2481C179.235 19.5969 179.155 19.9505 179.069 20.3079C179.058 20.3566 179.048 20.4042 179.036 20.4538C178.937 20.8646 178.828 21.2811 178.714 21.7033C178.682 21.8186 178.648 21.9349 178.615 22.0502C178.53 22.3591 178.44 22.6707 178.346 22.9862C178.301 23.1368 178.253 23.2903 178.207 23.4418C178.118 23.7277 178.027 24.0165 177.932 24.3082C177.88 24.4702 177.826 24.6341 177.771 24.7981C177.672 25.0935 177.569 25.3919 177.464 25.6921C177.409 25.8484 177.354 26.0038 177.298 26.161C177.174 26.507 177.045 26.8568 176.913 27.2085C176.87 27.3219 176.83 27.4334 176.786 27.5468C176.607 28.0167 176.421 28.4923 176.228 28.9718C176.195 29.0518 176.161 29.1338 176.128 29.2148C175.965 29.6132 175.799 30.0154 175.626 30.4215C175.56 30.5787 175.49 30.7388 175.422 30.8971C175.278 31.2316 175.132 31.5671 174.981 31.9055C174.902 32.0856 174.82 32.2657 174.739 32.4468C174.59 32.7757 174.439 33.1073 174.284 33.44C174.201 33.6201 174.118 33.7993 174.033 33.9804C173.864 34.3397 173.691 34.7019 173.514 35.066C173.441 35.2194 173.368 35.3729 173.292 35.5273C172.784 36.5681 172.249 37.627 171.686 38.7021C171.604 38.8584 171.519 39.0166 171.437 39.1749C171.235 39.558 171.031 39.9421 170.822 40.3291C170.719 40.5216 170.613 40.7161 170.507 40.9096C170.311 41.2708 170.112 41.633 169.91 41.997C169.799 42.1972 169.688 42.3974 169.574 42.5985C169.364 42.974 169.151 43.3505 168.935 43.7288C168.829 43.9157 168.723 44.1006 168.615 44.2883C168.356 44.7382 168.092 45.1928 167.824 45.6484C167.756 45.7638 167.692 45.8772 167.623 45.9925C167.285 46.5653 166.94 47.1429 166.589 47.7234C166.507 47.8587 166.422 47.996 166.339 48.1313C166.069 48.5764 165.796 49.0234 165.518 49.4723C165.394 49.6744 165.266 49.8774 165.14 50.0795C164.897 50.4693 164.653 50.8591 164.405 51.2508C164.266 51.471 164.127 51.6902 163.986 51.9114C163.739 52.2993 163.489 52.6882 163.237 53.0789C163.097 53.2943 162.958 53.5097 162.817 53.7261C162.539 54.1531 162.258 54.5829 161.974 55.0128C161.857 55.1891 161.742 55.3655 161.625 55.5427C161.22 56.1527 160.81 56.7646 160.395 57.3803C160.359 57.4308 160.324 57.4823 160.291 57.5319C159.908 58.0961 159.522 58.6623 159.13 59.2303C158.993 59.4286 158.854 59.6278 158.716 59.827C158.421 60.253 158.124 60.68 157.823 61.1089C157.664 61.3358 157.504 61.5636 157.343 61.7914C157.054 62.2012 156.763 62.611 156.469 63.0228C156.304 63.2544 156.139 63.486 155.972 63.7186C155.666 64.1446 155.356 64.5716 155.045 65.0005C154.891 65.2121 154.739 65.4237 154.584 65.6353C154.194 66.1709 153.798 66.7075 153.4 67.247C153.322 67.3509 153.247 67.4538 153.17 67.5577C152.691 68.202 152.208 68.8492 151.718 69.4983C151.59 69.6698 151.458 69.8423 151.327 70.0139C150.965 70.4924 150.601 70.9727 150.233 71.4541C150.058 71.6818 149.882 71.9116 149.705 72.1403C149.376 72.5692 149.044 72.9991 148.709 73.4289C148.52 73.6748 148.328 73.9198 148.136 74.1647C147.8 74.5965 147.46 75.0282 147.119 75.461C146.935 75.6935 146.753 75.9251 146.57 76.1577C146.179 76.6504 145.785 77.1442 145.39 77.6379C145.252 77.8094 145.118 77.9791 144.981 78.1497C144.442 78.8188 143.9 79.4898 143.352 80.1627C143.266 80.2675 143.179 80.3724 143.093 80.4772C142.632 81.0414 142.168 81.6076 141.7 82.1738C141.517 82.3949 141.333 82.616 141.15 82.8371C140.773 83.2918 140.393 83.7473 140.01 84.2039C139.802 84.4526 139.592 84.7024 139.382 84.9521C139.014 85.3896 138.643 85.827 138.272 86.2664C138.061 86.5133 137.85 86.7611 137.639 87.0099ZM182.099 32.016C186.491 20.9084 188.094 10.122 181.988 4.01537C172.514 -5.45765 151.782 3.60935 136.057 12.8841C122.08 21.1276 106.523 32.6918 90.7536 46.4633C90.6564 46.3671 90.5534 46.267 90.4581 46.1736C50.8682 11.5135 14.1043 -6.58899 3.75623 3.75899C-6.59185 14.107 12.1456 50.2348 46.806 89.8235C46.8918 89.9312 46.9633 90.0227 47.0271 90.1046C33.0057 106.095 21.2403 121.886 12.8824 136.057C3.6085 151.782 -5.45763 172.514 4.01453 181.986C6.85674 184.828 10.7102 186 15.1384 186C20.272 186 26.1766 184.423 32.1689 182.04C48.5731 175.904 71.3985 160.801 95.5612 139.73C95.5564 139.762 95.5469 139.795 95.5421 139.829C135.132 174.489 171.895 192.59 182.243 182.242C192.591 171.894 173.854 135.767 139.193 96.1779C160.614 71.7114 175.949 48.5697 182.099 32.016Z" fill="white"/>
</svg>
